<?xml version="1.0" encoding="UTF-8" standalone="no"?>
<!-- Created with Inkscape (http://www.inkscape.org/) -->

<svg
   xmlns:dc="http://purl.org/dc/elements/1.1/"
   xmlns:cc="http://creativecommons.org/ns#"
   xmlns:rdf="http://www.w3.org/1999/02/22-rdf-syntax-ns#"
   xmlns:svg="http://www.w3.org/2000/svg"
   xmlns="http://www.w3.org/2000/svg"
   xmlns:sodipodi="http://sodipodi.sourceforge.net/DTD/sodipodi-0.dtd"
   xmlns:inkscape="http://www.inkscape.org/namespaces/inkscape"
   width="744.09448819"
   height="1052.3622047"
   id="svg2"
   version="1.1"
   inkscape:version="0.48.0 r9654"
   sodipodi:docname="icons.svg">
  <defs
     id="defs4" />
  <sodipodi:namedview
     id="base"
     pagecolor="#ffffff"
     bordercolor="#666666"
     borderopacity="1.0"
     inkscape:pageopacity="0.0"
     inkscape:pageshadow="2"
     inkscape:zoom="2.0157702"
     inkscape:cx="229.08255"
     inkscape:cy="893.106"
     inkscape:document-units="px"
     inkscape:current-layer="layer1"
     showgrid="false"
     inkscape:snap-global="false"
     inkscape:window-width="1280"
     inkscape:window-height="977"
     inkscape:window-x="-4"
     inkscape:window-y="24"
     inkscape:window-maximized="1">
    <inkscape:grid
       type="xygrid"
       id="grid2993"
       empspacing="5"
       visible="true"
       enabled="true"
       snapvisiblegridlinesonly="true" />
  </sodipodi:namedview>
  <metadata
     id="metadata7">
    <rdf:RDF>
      <cc:Work
         rdf:about="">
        <dc:format>image/svg+xml</dc:format>
        <dc:type
           rdf:resource="http://purl.org/dc/dcmitype/StillImage" />
        <dc:title></dc:title>
      </cc:Work>
    </rdf:RDF>
  </metadata>
  <g
     inkscape:label="Layer 1"
     inkscape:groupmode="layer"
     id="layer1">
    <path
       sodipodi:nodetypes="sscsssssccss"
       inkscape:connector-curvature="0"
       id="path3030"
       d="m 232.5,107.36218 c -1.385,0 -2.61534,1.11981 -2.5,2.5 l 0,2.5 -20,0 c -2.77,0 -5,2.23 -5,5 l 0,20 c 0,2.77 2.23,5 5,5 l 30,0 c 2.77,0 5,-2.23 5,-5 l 0,-27.5 c 0,-1.385 -1.115,-2.5 -2.5,-2.5 z"
       style="color:#000000;fill:none;stroke:#000080;stroke-width:2;stroke-linecap:round;stroke-linejoin:round;stroke-miterlimit:4;stroke-opacity:1;stroke-dasharray:none;stroke-dashoffset:0;marker:none;visibility:visible;display:inline;overflow:visible;enable-background:accumulate" />
    <path
       style="color:#000000;fill:#ffffff;stroke:#000080;stroke-width:2;stroke-linecap:round;stroke-linejoin:round;stroke-miterlimit:4;stroke-opacity:1;stroke-dasharray:none;stroke-dashoffset:0;marker:none;visibility:visible;display:inline;overflow:visible;enable-background:accumulate"
       d="m 103.86604,153.94249 -1e-5,1.71429 19.41968,19.41969 c -0.49717,1.01198 -0.44297,2.12846 0.24108,2.8125 l 7.38497,7.38498 c 0.92332,0.92333 2.62983,0.7184 3.81697,-0.46874 1.18715,-1.18716 1.39207,-2.89365 0.46875,-3.81697 l -7.38498,-7.38498 c -0.68404,-0.68406 -1.80052,-0.73825 -2.8125,-0.24108 l -19.41968,-19.41969 z"
       id="rect3943"
       inkscape:connector-curvature="0"
       sodipodi:nodetypes="cccsssssccc" />
    <path
       style="color:#000000;fill:none;stroke:#000080;stroke-width:3;stroke-linecap:round;stroke-miterlimit:4;stroke-dasharray:none;marker:none;visibility:visible;display:inline;overflow:visible;enable-background:accumulate"
       d="m 125.5911,74.070026 c 0.532,0.359414 1.02756,0.768678 1.47997,1.221089 1.80964,1.809644 2.92893,4.309644 2.92893,7.071068 0,5.522847 -4.47715,10 -10,10 -5.52285,0 -10,-4.477153 -10,-10 0,-2.761424 1.11929,-5.261424 2.92893,-7.071068 0.45241,-0.452411 0.94797,-0.861675 1.47997,-1.221089"
       id="path3004"
       inkscape:connector-curvature="0"
       sodipodi:nodetypes="csssssc" />
    <path
       style="fill:none;stroke:#000080;stroke-width:3;stroke-linecap:round;stroke-linejoin:miter;stroke-miterlimit:4;stroke-opacity:1;stroke-dasharray:none"
       d="m 120,68.362183 0,7.999999"
       id="path3007"
       inkscape:connector-curvature="0" />
    <path
       sodipodi:nodetypes="csssssc"
       inkscape:connector-curvature="0"
       id="path3779"
       d="m 125.5911,74.070026 c 0.532,0.359414 1.02756,0.768678 1.47997,1.221089 1.80964,1.809644 2.92893,4.309644 2.92893,7.071068 0,5.522847 -4.47715,10 -10,10 -5.52285,0 -10,-4.477153 -10,-10 0,-2.761424 1.11929,-5.261424 2.92893,-7.071068 0.45241,-0.452411 0.94797,-0.861675 1.47997,-1.221089"
       style="color:#000000;fill:none;stroke:#000080;stroke-width:3;stroke-linecap:round;stroke-miterlimit:4;stroke-dasharray:none;marker:none;visibility:visible;display:inline;overflow:visible;enable-background:accumulate" />
    <rect
       style="color:#000000;fill:none;stroke:#000080;stroke-width:3;marker:none;visibility:visible;display:inline;overflow:visible;enable-background:accumulate"
       id="rect3798"
       width="40"
       height="20"
       x="145"
       y="72.362183"
       ry="5"
       rx="5" />
    <path
       style="color:#000000;fill:none;stroke:#000080;stroke-width:1;stroke-linecap:round;stroke-linejoin:round;stroke-miterlimit:4;stroke-opacity:1;stroke-dasharray:none;stroke-dashoffset:0;marker:none;visibility:visible;display:inline;overflow:visible;enable-background:accumulate"
       d="m 150,77.362182 2.5,2.5 -2.5,2.5"
       id="path3802"
       inkscape:connector-curvature="0" />
    <path
       style="color:#000000;fill:none;stroke:#000080;stroke-width:1;stroke-linecap:round;stroke-linejoin:miter;stroke-miterlimit:4;stroke-opacity:1;stroke-dasharray:none;stroke-dashoffset:0;marker:none;visibility:visible;display:inline;overflow:visible;enable-background:accumulate"
       d="m 155,82.362182 5,0"
       id="path3821"
       inkscape:connector-curvature="0" />
    <rect
       style="color:#000000;fill:none;stroke:#000080;stroke-width:2;stroke-linecap:round;stroke-linejoin:round;stroke-miterlimit:4;stroke-opacity:1;stroke-dasharray:none;stroke-dashoffset:0;marker:none;visibility:visible;display:inline;overflow:visible;enable-background:accumulate"
       id="rect3829"
       width="20"
       height="20"
       x="110.18307"
       y="113.85431"
       rx="5"
       ry="5" />
    <rect
       ry="7.5"
       rx="7.5"
       y="108.85431"
       x="105.18307"
       height="30"
       width="30"
       id="rect3831"
       style="color:#000000;fill:none;stroke:#000080;stroke-width:3;stroke-linecap:round;stroke-linejoin:round;stroke-miterlimit:4;stroke-opacity:1;stroke-dasharray:none;stroke-dashoffset:0;marker:none;visibility:visible;display:inline;overflow:visible;enable-background:accumulate" />
    <path
       sodipodi:type="arc"
       style="color:#000000;fill:#ffffff;fill-opacity:1;fill-rule:evenodd;stroke:#000080;stroke-width:1.81818187;stroke-linecap:round;stroke-linejoin:round;stroke-miterlimit:4;stroke-opacity:1;stroke-dasharray:none;stroke-dashoffset:0;marker:none;visibility:visible;display:inline;overflow:visible;enable-background:accumulate"
       id="path3835"
       sodipodi:cx="138"
       sodipodi:cy="127.36218"
       sodipodi:rx="5"
       sodipodi:ry="5"
       d="m 143,127.36218 a 5,5 0 1 1 -10,0 5,5 0 1 1 10,0 z"
       transform="matrix(1.1,0,0,1.1,-44.116929,-15.744092)" />
    <path
       transform="matrix(0.29999995,0,0,0.29999995,66.283078,86.145661)"
       d="m 143,127.36218 a 5,5 0 1 1 -10,0 5,5 0 1 1 10,0 z"
       sodipodi:ry="5"
       sodipodi:rx="5"
       sodipodi:cy="127.36218"
       sodipodi:cx="138"
       id="path3837"
       style="color:#000000;fill:#ffffff;fill-opacity:1;fill-rule:evenodd;stroke:#000080;stroke-width:3.33333397;stroke-linecap:round;stroke-linejoin:round;stroke-miterlimit:4;stroke-opacity:1;stroke-dasharray:none;stroke-dashoffset:0;marker:none;visibility:visible;display:inline;overflow:visible;enable-background:accumulate"
       sodipodi:type="arc" />
    <g
       id="g3951"
       transform="matrix(-1,0,0,-1,190.35893,249.06345)">
      <path
         sodipodi:nodetypes="csc"
         inkscape:connector-curvature="0"
         id="path3841"
         d="m 90.227091,119.0226 c 0,0 0.82637,-1.32133 4.13184,-1.32133 3.30548,0 4.13185,1.32133 4.13185,1.32133"
         style="fill:none;stroke:#000080;stroke-width:1px;stroke-linecap:round;stroke-linejoin:miter;stroke-opacity:1" />
      <path
         sodipodi:nodetypes="cccc"
         inkscape:connector-curvature="0"
         id="path3845"
         d="m 97.724821,119.75902 2.478399,0 -1.239199,-1.92918 z"
         style="fill:#000080;stroke:#000080;stroke-width:1px;stroke-linecap:round;stroke-linejoin:round;stroke-opacity:1" />
    </g>
    <g
       id="g3955">
      <path
         style="fill:none;stroke:#000080;stroke-width:1px;stroke-linecap:round;stroke-linejoin:miter;stroke-opacity:1"
         d="m 115.39608,120.25035 c 0,0 0.82637,-1.32133 4.13184,-1.32133 3.30548,0 4.13185,1.32133 4.13185,1.32133"
         id="path3847"
         inkscape:connector-curvature="0"
         sodipodi:nodetypes="csc" />
      <path
         style="fill:#000080;stroke:#000080;stroke-width:1px;stroke-linecap:round;stroke-linejoin:round;stroke-opacity:1"
         d="m 122.89381,120.98677 2.4784,0 -1.2392,-1.92918 z"
         id="path3849"
         inkscape:connector-curvature="0"
         sodipodi:nodetypes="cccc" />
    </g>
    <rect
       style="color:#000000;fill:none;stroke:#000080;stroke-width:3;stroke-linecap:butt;stroke-linejoin:miter;stroke-miterlimit:4;stroke-opacity:1;stroke-dasharray:none;stroke-dashoffset:0;marker:none;visibility:visible;display:inline;overflow:visible;enable-background:accumulate"
       id="rect3853"
       width="35"
       height="45"
       x="150"
       y="102.36218"
       rx="5"
       ry="5" />
    <path
       style="color:#000000;fill:none;stroke:#000080;stroke-width:0.99999994;stroke-linecap:butt;stroke-linejoin:miter;stroke-miterlimit:4;stroke-opacity:1;stroke-dasharray:none;stroke-dashoffset:0;marker:none;visibility:visible;display:inline;overflow:visible;enable-background:accumulate"
       d="m 155,112.36218 3.13967,-5"
       id="path3872"
       inkscape:connector-curvature="0" />
    <path
       style="fill:none;stroke:#000080;stroke-width:1;stroke-linecap:butt;stroke-linejoin:miter;stroke-opacity:1;color:#000000;stroke-miterlimit:4;stroke-dasharray:none;stroke-dashoffset:0;marker:none;visibility:visible;display:inline;overflow:visible;enable-background:accumulate"
       d="m 160,112.36218 c 0,0 0,15 0,20 0,5 5,5 5,5"
       id="path3874"
       inkscape:connector-curvature="0" />
    <path
       style="fill:none;stroke:#000080;stroke-width:1;stroke-linecap:butt;stroke-linejoin:miter;stroke-opacity:1;color:#000000;stroke-miterlimit:4;stroke-dasharray:none;stroke-dashoffset:0;marker:none;visibility:visible;display:inline;overflow:visible;enable-background:accumulate"
       d="m 160,127.36218 5,0"
       id="path3876"
       inkscape:connector-curvature="0" />
    <path
       style="fill:none;stroke:#000080;stroke-width:1;stroke-linecap:butt;stroke-linejoin:miter;stroke-opacity:1;color:#000000;stroke-miterlimit:4;stroke-dasharray:none;stroke-dashoffset:0;marker:none;visibility:visible;display:inline;overflow:visible;enable-background:accumulate"
       d="m 160,117.36218 5,0"
       id="path3878"
       inkscape:connector-curvature="0" />
    <flowRoot
       xml:space="preserve"
       id="flowRoot3882"
       style="font-size:10px;font-style:normal;font-weight:normal;line-height:125%;letter-spacing:0px;word-spacing:0px;fill:#000080;fill-opacity:1;stroke:none;font-family:Sans"
       transform="matrix(0.55734192,0,0,0.55734192,91.917929,19.768518)"><flowRegion
         id="flowRegion3884"><rect
           id="rect3886"
           width="73.173019"
           height="50.352962"
           x="133.94383"
           y="171.80547"
           style="fill:#000080" /></flowRegion><flowPara
         id="flowPara3888"
         style="font-size:8px;font-style:normal;font-variant:normal;font-weight:normal;font-stretch:normal;fill:#000080;font-family:DejaVu Sans;-inkscape-font-specification:DejaVu Sans">home</flowPara></flowRoot>    <flowRoot
       transform="matrix(0.55734192,0,0,0.55734192,91.917929,29.7833)"
       style="font-size:10px;font-style:normal;font-weight:normal;line-height:125%;letter-spacing:0px;word-spacing:0px;fill:#000080;fill-opacity:1;stroke:none;font-family:Sans"
       id="flowRoot3890"
       xml:space="preserve"><flowRegion
         id="flowRegion3892"><rect
           y="171.80547"
           x="133.94383"
           height="50.352962"
           width="73.173019"
           id="rect3894"
           style="fill:#000080" /></flowRegion><flowPara
         style="font-size:8px;font-style:normal;font-variant:normal;font-weight:normal;font-stretch:normal;fill:#000080;font-family:DejaVu Sans;-inkscape-font-specification:DejaVu Sans"
         id="flowPara3896">opt</flowPara></flowRoot>    <flowRoot
       xml:space="preserve"
       id="flowRoot3898"
       style="font-size:10px;font-style:normal;font-weight:normal;line-height:125%;letter-spacing:0px;word-spacing:0px;fill:#000080;fill-opacity:1;stroke:none;font-family:Sans"
       transform="matrix(0.55734192,0,0,0.55734192,91.917929,39.270989)"><flowRegion
         id="flowRegion3900"><rect
           id="rect3902"
           width="73.173019"
           height="50.352962"
           x="133.94383"
           y="171.80547"
           style="fill:#000080" /></flowRegion><flowPara
         id="flowPara3904"
         style="font-size:8px;font-style:normal;font-variant:normal;font-weight:normal;font-stretch:normal;fill:#000080;font-family:DejaVu Sans;-inkscape-font-specification:DejaVu Sans">etc</flowPara></flowRoot>    <path
       style="color:#000000;fill:#ffffff;stroke:#000080;stroke-width:2;stroke-linecap:round;stroke-linejoin:round;stroke-miterlimit:4;stroke-opacity:1;stroke-dasharray:none;stroke-dashoffset:0;marker:none;visibility:visible;display:inline;overflow:visible;enable-background:accumulate"
       d="m 129.65288,156.45245 c -2.17516,-0.85281 -4.73786,-0.40498 -6.49554,1.35269 -1.58823,1.58822 -2.11011,3.82881 -1.56698,5.85269 l -16.86163,16.86165 c -1.18716,1.18714 -1.18716,3.09858 0,4.28573 1.18715,1.18713 3.09857,1.18713 4.28571,0 l 16.86166,-16.86165 c 2.0239,0.54319 4.26445,0.0213 5.85269,-1.56697 1.75767,-1.75768 2.20548,-4.32038 1.35267,-6.49555 l -3.92412,3.92413 -3.42857,-3.4286 3.92411,-3.92412 z"
       id="path3938"
       inkscape:connector-curvature="0" />
    <rect
       ry="5"
       rx="5"
       y="162.36218"
       x="160"
       height="20"
       width="20"
       id="rect3982"
       style="color:#000000;fill:none;stroke:#000080;stroke-width:2;stroke-linecap:round;stroke-linejoin:round;stroke-miterlimit:4;stroke-opacity:1;stroke-dasharray:none;stroke-dashoffset:0;marker:none;visibility:visible;display:inline;overflow:visible;enable-background:accumulate" />
    <rect
       style="color:#000000;fill:none;stroke:#000080;stroke-width:3;stroke-linecap:round;stroke-linejoin:round;stroke-miterlimit:4;stroke-opacity:1;stroke-dasharray:none;stroke-dashoffset:0;marker:none;visibility:visible;display:inline;overflow:visible;enable-background:accumulate"
       id="rect3984"
       width="30"
       height="30"
       x="155"
       y="157.36218"
       rx="7.5"
       ry="7.5" />
    <path
       style="fill:#ffffff;stroke:#000080;stroke-width:1;stroke-linecap:round;stroke-linejoin:round;stroke-miterlimit:4;stroke-opacity:1;stroke-dasharray:none"
       d="m 164.3934,170.49331 -1.86887,1.86886 7.47547,1e-5 0,-7.47549 -1.86887,1.86888 -19.34433,-15.6066 z"
       id="path3980"
       inkscape:connector-curvature="0"
       sodipodi:nodetypes="ccccccc" />
    <g
       id="g3834"
       transform="translate(101.6981,-48.864697)">
      <rect
         ry="5"
         rx="5"
         y="207.36218"
         x="100"
         height="40"
         width="30"
         id="rect4015"
         style="color:#000000;fill:#ffffff;fill-opacity:1;fill-rule:evenodd;stroke:#000080;stroke-width:2;stroke-linecap:round;stroke-linejoin:round;stroke-miterlimit:4;stroke-opacity:1;stroke-dasharray:none;stroke-dashoffset:0;marker:none;visibility:visible;display:inline;overflow:visible;enable-background:accumulate" />
      <path
         id="path4017"
         d="m 115,210.375 c -6.62742,0 -12,5.37258 -12,12 l 0,10 0,10 c 0,2 2,2 2,2 l 20,0 c 2,0 2,-2 2,-2 l 0,-5 c 0,-2 -2,-2 -2,-2 l -8,0 c -1,0 -1.5,-0.5 -1.75,-1 6.51033,-0.13498 11.75,-5.45733 11.75,-12 0,-6.62742 -5.37258,-12 -12,-12 z"
         style="color:#000000;fill:#ffffff;fill-opacity:1;fill-rule:evenodd;stroke:#000080;stroke-width:2;stroke-linecap:round;stroke-linejoin:round;stroke-miterlimit:4;stroke-opacity:1;stroke-dasharray:none;stroke-dashoffset:0;marker:none;visibility:visible;display:inline;overflow:visible;enable-background:accumulate"
         inkscape:connector-curvature="0" />
      <path
         d="m 117,222.36218 c 0,1.10457 -0.89543,2 -2,2 -1.10457,0 -2,-0.89543 -2,-2 0,-1.10457 0.89543,-2 2,-2 1.10457,0 2,0.89543 2,2 z"
         sodipodi:ry="2"
         sodipodi:rx="2"
         sodipodi:cy="222.36218"
         sodipodi:cx="115"
         id="path4022"
         style="color:#000000;fill:#ffffff;fill-opacity:1;fill-rule:evenodd;stroke:#000080;stroke-width:1;stroke-linecap:round;stroke-linejoin:round;stroke-miterlimit:4;stroke-opacity:1;stroke-dasharray:none;stroke-dashoffset:0;marker:none;visibility:visible;display:inline;overflow:visible;enable-background:accumulate"
         sodipodi:type="arc" />
    </g>
    <g
       id="g4047"
       transform="matrix(-0.70710678,0.70710678,0.70710678,0.70710678,91.840448,-50.81096)">
      <rect
         ry="0"
         rx="10"
         y="232.36218"
         x="82"
         height="11"
         width="6"
         id="rect4035"
         style="color:#000000;fill:#ffffff;fill-opacity:1;fill-rule:evenodd;stroke:#000080;stroke-width:1;stroke-linecap:round;stroke-linejoin:round;stroke-miterlimit:4;stroke-opacity:1;stroke-dasharray:none;stroke-dashoffset:0;marker:none;visibility:visible;display:inline;overflow:visible;enable-background:accumulate" />
      <path
         id="path4033"
         d="m 90,237.375 -3,0 c 0,0 0,0.5 -0.25,1 -0.125,0.25 -0.3125,0.5 -0.59375,0.6875 C 85.875,239.25 85.5,239.375 85,239.375 c -0.5,0 -0.875,-0.125 -1.15625,-0.3125 C 83.5625,238.875 83.375,238.625 83.25,238.375 c -0.25,-0.5 -0.25,-1 -0.25,-1 l -3,0 0,25 c 0,2.77 2.23,5 5,5 2.77,0 5,-2.23 5,-5 l 0,-25 z"
         style="color:#000000;fill:#ffffff;fill-opacity:1;fill-rule:evenodd;stroke:#000080;stroke-width:1;stroke-linecap:round;stroke-linejoin:round;stroke-miterlimit:4;stroke-opacity:1;stroke-dasharray:none;stroke-dashoffset:0;marker:none;visibility:visible;display:inline;overflow:visible;enable-background:accumulate"
         inkscape:connector-curvature="0" />
      <path
         inkscape:connector-curvature="0"
         id="path4037"
         d="m 83,233.36218 4,0"
         style="color:#000000;fill:#ffffff;fill-opacity:1;fill-rule:evenodd;stroke:#000080;stroke-width:0.5;stroke-linecap:round;stroke-linejoin:round;stroke-miterlimit:4;stroke-opacity:1;stroke-dasharray:none;stroke-dashoffset:0;marker:none;visibility:visible;display:inline;overflow:visible;enable-background:accumulate" />
    </g>
    <path
       style="color:#000000;fill:#ffffff;stroke:#000080;stroke-width:3;stroke-linecap:round;stroke-linejoin:round;stroke-miterlimit:4;stroke-opacity:1;stroke-dasharray:none;stroke-dashoffset:0;marker:none;visibility:visible;display:inline;overflow:visible;enable-background:accumulate"
       d="m 227.5,112.375 c -1.385,0 -2.61534,1.11981 -2.5,2.5 l 0,2.5 -20,0 c -2.77,0 -5,2.23 -5,5 l 0,20 c 0,2.77 2.23,5 5,5 l 30,0 c 2.77,0 5,-2.23 5,-5 l 0,-27.5 c 0,-1.385 -1.115,-2.5 -2.5,-2.5 z"
       id="rect4052"
       inkscape:connector-curvature="0"
       sodipodi:nodetypes="sscsssssccss" />
    <path
       inkscape:connector-curvature="0"
       id="path3800"
       d="m 205,126.48521 3.13967,-5"
       style="color:#000000;fill:none;stroke:#000080;stroke-width:0.99999994;stroke-linecap:butt;stroke-linejoin:miter;stroke-miterlimit:4;stroke-opacity:1;stroke-dasharray:none;stroke-dashoffset:0;marker:none;visibility:visible;display:inline;overflow:visible;enable-background:accumulate" />
    <path
       inkscape:connector-curvature="0"
       id="path3803"
       d="m 210,126.48521 c 0,0 0,9 0,12 0,3 5,3 5,3"
       style="color:#000000;fill:none;stroke:#000080;stroke-width:0.99999994;stroke-linecap:butt;stroke-linejoin:miter;stroke-miterlimit:4;stroke-opacity:1;stroke-dasharray:none;stroke-dashoffset:0;marker:none;visibility:visible;display:inline;overflow:visible;enable-background:accumulate" />
    <path
       inkscape:connector-curvature="0"
       id="path3807"
       d="m 210,131.48521 5,0"
       style="color:#000000;fill:none;stroke:#000080;stroke-width:1;stroke-linecap:butt;stroke-linejoin:miter;stroke-miterlimit:4;stroke-opacity:1;stroke-dasharray:none;stroke-dashoffset:0;marker:none;visibility:visible;display:inline;overflow:visible;enable-background:accumulate" />
    <flowRoot
       transform="matrix(0.55734192,0,0,0.55734192,141.91793,33.891553)"
       style="font-size:10px;font-style:normal;font-weight:normal;line-height:125%;letter-spacing:0px;word-spacing:0px;fill:#000080;fill-opacity:1;stroke:none;font-family:Sans"
       id="flowRoot3809"
       xml:space="preserve"><flowRegion
         id="flowRegion3811"><rect
           style="fill:#000080"
           y="171.80547"
           x="133.94383"
           height="50.352962"
           width="73.173019"
           id="rect3813" /></flowRegion><flowPara
         style="font-size:8px;font-style:normal;font-variant:normal;font-weight:normal;font-stretch:normal;fill:#000080;font-family:DejaVu Sans;-inkscape-font-specification:DejaVu Sans"
         id="flowPara3815">home</flowPara></flowRoot>    <flowRoot
       xml:space="preserve"
       id="flowRoot3817"
       style="font-size:10px;font-style:normal;font-weight:normal;line-height:125%;letter-spacing:0px;word-spacing:0px;fill:#000080;fill-opacity:1;stroke:none;font-family:Sans"
       transform="matrix(0.55734192,0,0,0.55734192,141.91793,43.442771)"><flowRegion
         id="flowRegion3819"><rect
           style="fill:#000080"
           id="rect3821"
           width="73.173019"
           height="50.352962"
           x="133.94383"
           y="171.80547" /></flowRegion><flowPara
         id="flowPara3823"
         style="font-size:8px;font-style:normal;font-variant:normal;font-weight:normal;font-stretch:normal;fill:#000080;font-family:DejaVu Sans;-inkscape-font-specification:DejaVu Sans">opt</flowPara></flowRoot>  </g>
</svg>
